<?xml version="1.0" encoding="UTF-8" standalone="no"?>
<svg
   width="1099.1099pt"
   height="356.20651pt"
   viewBox="0 0 1099.1099 356.20651"
   version="1.1"
   id="svg1062"
   sodipodi:docname="logo-samerion.svg"
   inkscape:version="1.1.1 (3bf5ae0d25, 2021-09-20, custom)"
   inkscape:export-filename="/home/soaku/media/images/samerion/logo-samerion.png"
   inkscape:export-xdpi="96"
   inkscape:export-ydpi="96"
   xmlns:inkscape="http://www.inkscape.org/namespaces/inkscape"
   xmlns:sodipodi="http://sodipodi.sourceforge.net/DTD/sodipodi-0.dtd"
   xmlns="http://www.w3.org/2000/svg"
   xmlns:svg="http://www.w3.org/2000/svg"
   xmlns:rdf="http://www.w3.org/1999/02/22-rdf-syntax-ns#"
   xmlns:cc="http://creativecommons.org/ns#"
   xmlns:dc="http://purl.org/dc/elements/1.1/">
  <metadata
     id="metadata1066">
    <rdf:RDF>
      <cc:Work
         rdf:about="">
        <dc:format>image/svg+xml</dc:format>
        <dc:type
           rdf:resource="http://purl.org/dc/dcmitype/StillImage" />
        <dc:title />
      </cc:Work>
    </rdf:RDF>
  </metadata>
  <sodipodi:namedview
     pagecolor="#ffffff"
     bordercolor="#666666"
     borderopacity="1"
     objecttolerance="10"
     gridtolerance="10"
     guidetolerance="10"
     inkscape:pageopacity="0"
     inkscape:pageshadow="2"
     inkscape:window-width="1920"
     inkscape:window-height="1080"
     id="namedview1064"
     showgrid="false"
     inkscape:zoom="1"
     inkscape:cx="928"
     inkscape:cy="139"
     inkscape:window-x="0"
     inkscape:window-y="0"
     inkscape:window-maximized="1"
     inkscape:current-layer="svg1062"
     inkscape:document-rotation="0"
     showguides="true"
     inkscape:lockguides="false"
     inkscape:guide-bbox="true"
     inkscape:snap-to-guides="true"
     fit-margin-top="0"
     fit-margin-left="0"
     fit-margin-right="0"
     fit-margin-bottom="0"
     inkscape:pagecheckerboard="0"
     inkscape:document-units="pt">
    <sodipodi:guide
       position="349.67967,52.563247"
       orientation="0,-1"
       id="guide973" />
    <sodipodi:guide
       position="285.9445,241.46556"
       orientation="0,-1"
       id="guide862" />
  </sodipodi:namedview>
  <defs
     id="defs1043" />
  <g
     id="group0"
     transform="translate(210.72938,123.28816)"
     fill="none">
    <path
       style="color:#000000;font-style:normal;font-variant:normal;font-weight:normal;font-stretch:normal;font-size:medium;line-height:normal;font-family:sans-serif;font-variant-ligatures:normal;font-variant-position:normal;font-variant-caps:normal;font-variant-numeric:normal;font-variant-alternates:normal;font-variant-east-asian:normal;font-feature-settings:normal;font-variation-settings:normal;text-indent:0;text-align:start;text-decoration:none;text-decoration-line:none;text-decoration-style:solid;text-decoration-color:#000000;letter-spacing:normal;word-spacing:normal;text-transform:none;writing-mode:lr-tb;direction:ltr;text-orientation:mixed;dominant-baseline:auto;baseline-shift:baseline;text-anchor:start;white-space:normal;shape-padding:0;shape-margin:0;inline-size:0;clip-rule:nonzero;display:inline;overflow:visible;visibility:visible;opacity:1;isolation:auto;mix-blend-mode:normal;color-interpolation:sRGB;color-interpolation-filters:linearRGB;solid-color:#000000;solid-opacity:1;vector-effect:none;fill:#000000;fill-opacity:1;fill-rule:nonzero;stroke:none;stroke-linecap:square;stroke-linejoin:bevel;stroke-miterlimit:4;stroke-dasharray:none;stroke-dashoffset:0;stroke-opacity:1;color-rendering:auto;image-rendering:auto;shape-rendering:auto;text-rendering:auto;enable-background:accumulate;stop-color:#000000;stop-opacity:1"
       d="M 59.542462,-2.4215109 C 35.552322,-1.7588514 28.978671,21.335354 26.755859,40.060547 24.594834,59.893895 25.096291,81.077695 24.517578,86.75 c -1.431169,14.02857 -3.130021,31.12494 -7.341797,46.26758 -4.211775,15.14264 -12.180066,35.7479 -22.3958265,42.36439 -3.4616876,1.44778 -11.5900705,-5.26719 -7.5553455,-1.1047 1.96745,2.02975 3.0396558,2.97607 5.04612,4.1035 3.533543,1.98551 12.3788994,0.62349 16.5630092,-1.26516 14.7010398,-9.5215 20.7817668,-22.4182 25.4667908,-39.26231 4.685025,-16.84411 7.862577,-34.12454 9.287407,-48.090976 0.926187,-9.078096 4.946746,-28.37238 6.957632,-46.827786 C 51.551012,33.706835 55.109632,19.97042 57.798984,13.704331 61.969643,3.9868513 70.903084,-3.3034304 91.214681,-0.83968392 84.883186,-8.2651097 70.405309,-1.4358641 59.542462,-2.4215109 Z"
       id="shape0"
       transform="translate(0,1.3438495)"
       sodipodi:nodetypes="ccsscsscsssscc" />
    <path
       style="color:#000000;font-style:normal;font-variant:normal;font-weight:normal;font-stretch:normal;font-size:medium;line-height:normal;font-family:sans-serif;font-variant-ligatures:normal;font-variant-position:normal;font-variant-caps:normal;font-variant-numeric:normal;font-variant-alternates:normal;font-variant-east-asian:normal;font-feature-settings:normal;font-variation-settings:normal;text-indent:0;text-align:start;text-decoration:none;text-decoration-line:none;text-decoration-style:solid;text-decoration-color:#000000;letter-spacing:normal;word-spacing:normal;text-transform:none;writing-mode:lr-tb;direction:ltr;text-orientation:mixed;dominant-baseline:auto;baseline-shift:baseline;text-anchor:start;white-space:normal;shape-padding:0;shape-margin:0;inline-size:0;clip-rule:nonzero;display:inline;overflow:visible;visibility:visible;opacity:1;isolation:auto;mix-blend-mode:normal;color-interpolation:sRGB;color-interpolation-filters:linearRGB;solid-color:#000000;solid-opacity:1;vector-effect:none;fill:#000000;fill-opacity:1;fill-rule:nonzero;stroke:none;stroke-linecap:square;stroke-linejoin:bevel;stroke-miterlimit:4;stroke-dasharray:none;stroke-dashoffset:0;stroke-opacity:1;color-rendering:auto;image-rendering:auto;shape-rendering:auto;text-rendering:auto;enable-background:accumulate;stop-color:#000000;stop-opacity:1"
       d="m 48.519297,-8.2261541 c -17.389393,2.4825349 -29.356078,6.8128322 -38.060253,14.0800738 0,0 -14.1805823,11.2379313 -9.0673158,15.5176033 C 8.95678,15.23492 25.050264,4.3972943 37.253057,4.4741454 82.78701,4.7609104 97.582946,3.2193246 118.44712,11.548042 c 6.62291,1.876286 10.96029,-0.581161 13.05951,0.917809 l 3.73147,0.388183 C 139.94891,1.7055324 161.83543,10.972062 151.60359,4.3825359 118.97052,-16.633873 80.826155,-12.838328 48.519297,-8.2261541 Z"
       id="shape1"
       sodipodi:nodetypes="sscscccss" />
    <path
       style="color:#000000;font-style:normal;font-variant:normal;font-weight:normal;font-stretch:normal;font-size:medium;line-height:normal;font-family:sans-serif;font-variant-ligatures:normal;font-variant-position:normal;font-variant-caps:normal;font-variant-numeric:normal;font-variant-alternates:normal;font-variant-east-asian:normal;font-feature-settings:normal;font-variation-settings:normal;text-indent:0;text-align:start;text-decoration:none;text-decoration-line:none;text-decoration-style:solid;text-decoration-color:#000000;letter-spacing:normal;word-spacing:normal;text-transform:none;writing-mode:lr-tb;direction:ltr;text-orientation:mixed;dominant-baseline:auto;baseline-shift:baseline;text-anchor:start;white-space:normal;shape-padding:0;shape-margin:0;inline-size:0;clip-rule:nonzero;display:inline;overflow:visible;visibility:visible;opacity:1;isolation:auto;mix-blend-mode:normal;color-interpolation:sRGB;color-interpolation-filters:linearRGB;solid-color:#000000;solid-opacity:1;vector-effect:none;fill:#000000;fill-opacity:1;fill-rule:nonzero;stroke:none;stroke-width:0.99975;stroke-linecap:square;stroke-linejoin:bevel;stroke-miterlimit:4;stroke-dasharray:none;stroke-dashoffset:0;stroke-opacity:1;color-rendering:auto;image-rendering:auto;shape-rendering:auto;text-rendering:auto;enable-background:accumulate;stop-color:#000000;stop-opacity:1"
       d="m -6.9684944,-30.3733 -3.6577046,168.09226 c -0.288123,4.15222 -7.538408,5.97159 -5.384528,7.4852 0.764987,0.53758 30.714432,0.43665 31.603623,-0.21235 2.433211,-1.77595 -5.500735,-3.68474 -5.6315629,-6.86901 L 13.825715,-22.306484 Z"
       id="shape2"
       transform="translate(121.41239,35.160518)"
       sodipodi:nodetypes="ccssccc" />
    <path
       style="color:#000000;font-style:normal;font-variant:normal;font-weight:normal;font-stretch:normal;font-size:medium;line-height:normal;font-family:sans-serif;font-variant-ligatures:normal;font-variant-position:normal;font-variant-caps:normal;font-variant-numeric:normal;font-variant-alternates:normal;font-variant-east-asian:normal;font-feature-settings:normal;font-variation-settings:normal;text-indent:0;text-align:start;text-decoration:none;text-decoration-line:none;text-decoration-style:solid;text-decoration-color:#000000;letter-spacing:normal;word-spacing:normal;text-transform:none;writing-mode:lr-tb;direction:ltr;text-orientation:mixed;dominant-baseline:auto;baseline-shift:baseline;text-anchor:start;white-space:normal;shape-padding:0;shape-margin:0;inline-size:0;clip-rule:nonzero;display:inline;overflow:visible;visibility:visible;opacity:1;isolation:auto;mix-blend-mode:normal;color-interpolation:sRGB;color-interpolation-filters:linearRGB;solid-color:#000000;solid-opacity:1;vector-effect:none;fill:#000000;fill-opacity:1;fill-rule:nonzero;stroke:none;stroke-linecap:square;stroke-linejoin:bevel;stroke-miterlimit:4;stroke-dasharray:none;stroke-dashoffset:0;stroke-opacity:1;color-rendering:auto;image-rendering:auto;shape-rendering:auto;text-rendering:auto;enable-background:accumulate;stop-color:#000000;stop-opacity:1"
       d="M 82.594128,-15.171501 C 63.434656,-15.840734 50.421166,-12.212643 36.337912,-9.8377209 22.254657,-7.4627994 3.8815535,-6.8421262 1.1819353,-7.4491883 l -6.6272478,6.3612977 -3.1582031,14.0488286 6.7237225,-0.177321 C 7.5964887,14.914545 18.305048,13.792844 32.167969,11.455078 46.03089,9.1173124 61.448378,0.91714191 78.970706,1.52919 l 7.195313,0.25 0.501953,-14.390625 z"
       id="shape3"
       transform="translate(35.999999,76.80754)"
       sodipodi:nodetypes="csccccscccc" />
  </g>
  <g
     id="group1"
     transform="translate(359.43239,118.09025)"
     fill="none">
    <path
       style="color:#000000;font-style:normal;font-variant:normal;font-weight:normal;font-stretch:normal;font-size:medium;line-height:normal;font-family:sans-serif;font-variant-ligatures:normal;font-variant-position:normal;font-variant-caps:normal;font-variant-numeric:normal;font-variant-alternates:normal;font-variant-east-asian:normal;font-feature-settings:normal;font-variation-settings:normal;text-indent:0;text-align:start;text-decoration:none;text-decoration-line:none;text-decoration-style:solid;text-decoration-color:#000000;letter-spacing:normal;word-spacing:normal;text-transform:none;writing-mode:lr-tb;direction:ltr;text-orientation:mixed;dominant-baseline:auto;baseline-shift:baseline;text-anchor:start;white-space:normal;shape-padding:0;shape-margin:0;inline-size:0;clip-rule:nonzero;display:inline;overflow:visible;visibility:visible;opacity:1;isolation:auto;mix-blend-mode:normal;color-interpolation:sRGB;color-interpolation-filters:linearRGB;solid-color:#000000;solid-opacity:1;vector-effect:none;fill:#000000;fill-opacity:1;fill-rule:nonzero;stroke:none;stroke-linecap:square;stroke-linejoin:bevel;stroke-miterlimit:4;stroke-dasharray:none;stroke-dashoffset:0;stroke-opacity:1;color-rendering:auto;image-rendering:auto;shape-rendering:auto;text-rendering:auto;enable-background:accumulate;stop-color:#000000;stop-opacity:1"
       d="m 76.122331,62.956113 c -2.649211,7.876173 -4.77736,13.926959 -6.875,19.882812 C 66.513108,74.38595 63.318497,64.256617 59.893815,53.344784 56.066584,41.150336 52.153086,28.704389 48.893815,18.786191 47.26418,13.827092 44.237834,4.7613619 43.007567,1.3634553 41.777301,-2.0344513 37.351338,-4.3087418 34.250194,-4.2252906 31.119572,-4.1410466 13.831018,0.14895833 18.648798,1.2226487 24.559545,2.5399178 25.850773,5.6634826 25.198599,9.5278099 24.368262,14.4478 24.063982,17.464461 22.932013,24.835371 16.039849,63.299542 11.494025,101.74373 4.4558331,138.48837 c -3.2775892,16.74921 -7.3587704,39.38095 -7.614051,40.62322 -0.6363634,3.09673 -7.5062991,5.00781 -3.767699,6.42201 1.0088328,0.38161 32.0464439,1.30442 33.3377499,0.61991 2.814701,-1.49196 -6.710216,-5.12364 -6.960724,-7.42364 6.014331,-51.83988 14.532348,-89.177163 21.57553,-133.92933 6.061496,24.119779 19.026216,58.01196 23.080946,75.36018 4.08428,17.47465 3.852493,15.23972 7.940472,-1.31124 4.208724,-17.0398 18.920512,-56.528478 24.171767,-72.695181 L 120.95356,178.51909 c -0.0682,2.42082 -6.09661,6.66451 -2.83801,7.76579 1.42583,0.48187 24.5008,-0.0637 26.47457,-0.503 3.15378,-0.70194 -3.85422,-5.9741 -4.32406,-7.70648 C 130.0693,126.80077 123.0673,74.772093 113.92096,23.274918 113.33445,19.94895 112.59756,14.5347 111.5209,9.0307899 c -0.69184,-3.5366893 4.39843,-7.7639677 7.13059,-7.7359169 6.5955,0.067715 -9.40652,-5.5757969 -13.51156,-5.5527647 -3.14171,0.017627 -3.80646,0.086463 -7.833996,10.170755 C 94.142191,13.834402 79.688888,52.352645 76.122331,62.956113 Z"
       id="shape4"
       sodipodi:nodetypes="scssssssccsssccssccssccsssss" />
  </g>
  <g
     id="group2"
     transform="translate(513.4894,120.74762)"
     fill="none">
    <path
       style="color:#000000;font-style:normal;font-variant:normal;font-weight:normal;font-stretch:normal;font-size:medium;line-height:normal;font-family:sans-serif;font-variant-ligatures:normal;font-variant-position:normal;font-variant-caps:normal;font-variant-numeric:normal;font-variant-alternates:normal;font-variant-east-asian:normal;font-feature-settings:normal;font-variation-settings:normal;text-indent:0;text-align:start;text-decoration:none;text-decoration-line:none;text-decoration-style:solid;text-decoration-color:#000000;letter-spacing:normal;word-spacing:normal;text-transform:none;writing-mode:lr-tb;direction:ltr;text-orientation:mixed;dominant-baseline:auto;baseline-shift:baseline;text-anchor:start;white-space:normal;shape-padding:0;shape-margin:0;inline-size:0;clip-rule:nonzero;display:inline;overflow:visible;visibility:visible;opacity:1;isolation:auto;mix-blend-mode:normal;color-interpolation:sRGB;color-interpolation-filters:linearRGB;solid-color:#000000;solid-opacity:1;vector-effect:none;fill:#000000;fill-opacity:1;fill-rule:nonzero;stroke:none;stroke-linecap:square;stroke-linejoin:bevel;stroke-miterlimit:4;stroke-dasharray:none;stroke-dashoffset:0;stroke-opacity:1;color-rendering:auto;image-rendering:auto;shape-rendering:auto;text-rendering:auto;enable-background:accumulate;stop-color:#000000;stop-opacity:1"
       d="M 12.895688,-5.6856098 C 5.3784625,-6.3050909 -20.929877,-6.9141067 -15.777669,-4.0393581 -8.2920457,0.13735298 -4.2733258,11.354392 -3.3448828,14.837246 l 3.06612818,168.058394 c 1.30432662,2.40565 103.27952462,1.7046 105.97097462,2e-5 5.06229,-3.20611 18.81263,-21.75514 7.07336,-13.81594 -3.1648,2.14033 -5.54796,3.17792 -10.7426,4.19498 -6.226198,1.21903 -68.243388,-8.60922 -81.070131,-4.55411 0.13666,-3.32143 3.576516,-41.72728 1.309748,-72.163708 C 20.044368,66.772199 12.491618,19.378524 20.132981,14.634826 31.0202,7.876126 37.284618,8.6023234 51.515422,7.8707805 60.225876,6.9449098 74.454437,7.5147429 80.273831,7.5232468 c 3.017172,-0.016551 5.703571,1.9459739 8.010311,4.3505802 4.391693,4.578016 3.472319,5.927603 2.160866,10.613486 -2.562402,9.155575 8.604926,-9.314257 7.869577,-12.426849 C 96.722548,3.3216771 95.208441,-6.1035004 85.188579,-5.9734375 63.014733,-5.6856098 36.661332,-3.7271255 12.895688,-5.6856098 Z"
       id="shape5"
       sodipodi:nodetypes="ssccssscssccsssss" />
    <path
       style="color:#000000;font-style:normal;font-variant:normal;font-weight:normal;font-stretch:normal;font-size:medium;line-height:normal;font-family:sans-serif;font-variant-ligatures:normal;font-variant-position:normal;font-variant-caps:normal;font-variant-numeric:normal;font-variant-alternates:normal;font-variant-east-asian:normal;font-feature-settings:normal;font-variation-settings:normal;text-indent:0;text-align:start;text-decoration:none;text-decoration-line:none;text-decoration-style:solid;text-decoration-color:#000000;letter-spacing:normal;word-spacing:normal;text-transform:none;writing-mode:lr-tb;direction:ltr;text-orientation:mixed;dominant-baseline:auto;baseline-shift:baseline;text-anchor:start;white-space:normal;shape-padding:0;shape-margin:0;inline-size:0;clip-rule:nonzero;display:inline;overflow:visible;visibility:visible;opacity:1;isolation:auto;mix-blend-mode:normal;color-interpolation:sRGB;color-interpolation-filters:linearRGB;solid-color:#000000;solid-opacity:1;vector-effect:none;fill:#000000;fill-opacity:1;fill-rule:nonzero;stroke:none;stroke-linecap:round;stroke-linejoin:bevel;stroke-miterlimit:4;stroke-dasharray:none;stroke-dashoffset:0;stroke-opacity:1;color-rendering:auto;image-rendering:auto;shape-rendering:auto;text-rendering:auto;enable-background:accumulate;stop-color:#000000;stop-opacity:1"
       d="M 64.70821,-7.4031209 C 61.103076,-5.7119312 26.082713,-4.06085 -0.13493896,-3.2151184 -4.1093578,-3.0862559 -7.3242559,-0.68144736 -7.1953125,3.2929688 -7.0664404,7.2665997 -3.7412424,10.383699 0.23242188,10.255859 26.62357,9.404531 58.25979,7.4324476 62.688249,10.656534 73.0508,18.200862 69.248875,10.407725 67.71167,2.9934706 65.987265,-5.3236848 70.411161,-10.078409 64.70821,-7.4031209 Z"
       id="shape6"
       transform="translate(12.960009,94.244411)"
       sodipodi:nodetypes="scscsss" />
  </g>
  <g
     id="group3"
     transform="translate(640.11509,123.31789)"
     fill="none">
    <path
       style="color:#000000;font-style:normal;font-variant:normal;font-weight:normal;font-stretch:normal;font-size:medium;line-height:normal;font-family:sans-serif;font-variant-ligatures:normal;font-variant-position:normal;font-variant-caps:normal;font-variant-numeric:normal;font-variant-alternates:normal;font-variant-east-asian:normal;font-feature-settings:normal;font-variation-settings:normal;text-indent:0;text-align:start;text-decoration:none;text-decoration-line:none;text-decoration-style:solid;text-decoration-color:#000000;letter-spacing:normal;word-spacing:normal;text-transform:none;writing-mode:lr-tb;direction:ltr;text-orientation:mixed;dominant-baseline:auto;baseline-shift:baseline;text-anchor:start;white-space:normal;shape-padding:0;shape-margin:0;inline-size:0;clip-rule:nonzero;display:inline;overflow:visible;visibility:visible;opacity:1;isolation:auto;mix-blend-mode:normal;color-interpolation:sRGB;color-interpolation-filters:linearRGB;solid-color:#000000;solid-opacity:1;vector-effect:none;fill:#000000;fill-opacity:1;fill-rule:nonzero;stroke:none;stroke-linecap:square;stroke-linejoin:bevel;stroke-miterlimit:4;stroke-dasharray:none;stroke-dashoffset:0;stroke-opacity:1;color-rendering:auto;image-rendering:auto;shape-rendering:auto;text-rendering:auto;enable-background:accumulate;stop-color:#000000;stop-opacity:1"
       d="M 0.10246646,3.0371669 C -1.2216894,3.5537064 -7.7052712,-4.5085464 -6.718258,1.1607807 L -2.3966364,170.26239 c 0.069969,2.73783 -7.2344256,7.54475 -5.6112608,9.31284 0.5608696,0.61094 29.9396102,0.59748 30.9559352,-0.2144 1.875327,-1.4981 -5.70887,-5.44908 -5.774727,-8.08165 L 13.067429,7.149621 c 0,-5.4896851 -0.925433,-8.8089503 -12.96496254,-4.1124541 z"
       id="shape7"
       transform="translate(0,0.78349324)"
       sodipodi:nodetypes="scsssscs" />
    <path
       style="color:#000000;font-style:normal;font-variant:normal;font-weight:normal;font-stretch:normal;font-size:medium;line-height:normal;font-family:sans-serif;font-variant-ligatures:normal;font-variant-position:normal;font-variant-caps:normal;font-variant-numeric:normal;font-variant-alternates:normal;font-variant-east-asian:normal;font-feature-settings:normal;font-variation-settings:normal;text-indent:0;text-align:start;text-decoration:none;text-decoration-line:none;text-decoration-style:solid;text-decoration-color:#000000;letter-spacing:normal;word-spacing:normal;text-transform:none;writing-mode:lr-tb;direction:ltr;text-orientation:mixed;dominant-baseline:auto;baseline-shift:baseline;text-anchor:start;white-space:normal;shape-padding:0;shape-margin:0;inline-size:0;clip-rule:nonzero;display:inline;overflow:visible;visibility:visible;opacity:1;isolation:auto;mix-blend-mode:normal;color-interpolation:sRGB;color-interpolation-filters:linearRGB;solid-color:#000000;solid-opacity:1;vector-effect:none;fill:#000000;fill-opacity:1;fill-rule:nonzero;stroke:none;stroke-linecap:square;stroke-linejoin:bevel;stroke-miterlimit:4;stroke-dasharray:none;stroke-dashoffset:0;stroke-opacity:1;color-rendering:auto;image-rendering:auto;shape-rendering:auto;text-rendering:auto;enable-background:accumulate;stop-color:#000000;stop-opacity:1"
       d="m 80.61069,36.695645 c 0.707848,10.260152 2.445143,32.469736 -20.414624,43.680562 -16.045387,7.868937 -39.443969,7.222948 -50.8391102,10.03925 l 1.0190632,18.743573 c 15.773065,-2.49612 32.200507,-3.98401 39.107912,-6.33736 27.952608,11.47006 -2.418774,58.50525 47.274473,83.16083 13.996016,6.9442 25.399646,-3.70699 33.056046,-15.91023 l 3.82617,-6.09961 -12.19726,-7.65235 -1.40437,17.56946 c -0.67269,2.42282 -8.39202,2.82251 -13.33084,2.64057 C 72.072833,175.25437 96.159936,118.46527 67.125558,96.307277 95.143856,83.649815 106.47459,57.174027 96.902454,24.473869 85.558903,-14.277753 45.449938,-11.595202 -2.3941159,-2.2878275 -6.831882,-1.4245238 -32.999119,-7.6285608 -25.706914,-4.1438721 -20.846819,-1.8214033 -9.2400289,20.133613 4.7995978,15.742995 53.659976,0.46286881 79.507828,20.709834 80.61069,36.695645 Z"
       id="shape8"
       transform="translate(0.76366047)"
       sodipodi:nodetypes="sscccsccccscsssss" />
  </g>
  <path
     style="color:#000000;font-style:normal;font-variant:normal;font-weight:normal;font-stretch:normal;font-size:medium;line-height:normal;font-family:sans-serif;font-variant-ligatures:normal;font-variant-position:normal;font-variant-caps:normal;font-variant-numeric:normal;font-variant-alternates:normal;font-variant-east-asian:normal;font-feature-settings:normal;font-variation-settings:normal;text-indent:0;text-align:start;text-decoration:none;text-decoration-line:none;text-decoration-style:solid;text-decoration-color:#000000;letter-spacing:normal;word-spacing:normal;text-transform:none;writing-mode:lr-tb;direction:ltr;text-orientation:mixed;dominant-baseline:auto;baseline-shift:baseline;text-anchor:start;white-space:normal;shape-padding:0;shape-margin:0;inline-size:0;clip-rule:nonzero;display:inline;overflow:visible;visibility:visible;opacity:1;isolation:auto;mix-blend-mode:normal;color-interpolation:sRGB;color-interpolation-filters:linearRGB;solid-color:#000000;solid-opacity:1;vector-effect:none;fill:#000000;fill-opacity:1;fill-rule:nonzero;stroke:none;stroke-linecap:square;stroke-linejoin:bevel;stroke-miterlimit:4;stroke-dasharray:none;stroke-dashoffset:0;stroke-opacity:1;color-rendering:auto;image-rendering:auto;shape-rendering:auto;text-rendering:auto;enable-background:accumulate;stop-color:#000000;stop-opacity:1"
     d="m 760.46517,122.33843 c 0,0 -0.24956,115.9987 -0.375,173.99804 -0.005,2.39975 -6.42663,5.79754 -4.40359,7.08831 0.97394,0.62141 30.1677,0.85547 31.63611,0.12238 2.14705,-1.07189 -5.6896,-4.98068 -5.6844,-7.38042 0.12577,-57.99935 0.49882,-171.14812 0.37695,-173.99804 -0.12634,-2.9547 7.64585,-5.11322 5.83232,-6.68581 -1.05029,-0.91075 -32.65358,-1.01703 -33.51005,0.0485 -0.93262,1.16027 6.13276,4.44192 6.12766,6.80706 z"
     id="shape9"
     sodipodi:nodetypes="sssssssss" />
  <g
     id="group4"
     transform="translate(798.95418,124.63115)"
     fill="none">
    <path
       style="color:#000000;font-style:normal;font-variant:normal;font-weight:normal;font-stretch:normal;font-size:medium;line-height:normal;font-family:sans-serif;font-variant-ligatures:normal;font-variant-position:normal;font-variant-caps:normal;font-variant-numeric:normal;font-variant-alternates:normal;font-variant-east-asian:normal;font-feature-settings:normal;font-variation-settings:normal;text-indent:0;text-align:start;text-decoration:none;text-decoration-line:none;text-decoration-style:solid;text-decoration-color:#000000;letter-spacing:normal;word-spacing:normal;text-transform:none;writing-mode:lr-tb;direction:ltr;text-orientation:mixed;dominant-baseline:auto;baseline-shift:baseline;text-anchor:start;white-space:normal;shape-padding:0;shape-margin:0;inline-size:0;clip-rule:nonzero;display:inline;overflow:visible;visibility:visible;opacity:1;isolation:auto;mix-blend-mode:normal;color-interpolation:sRGB;color-interpolation-filters:linearRGB;solid-color:#000000;solid-opacity:1;vector-effect:none;fill:#000000;fill-opacity:1;fill-rule:nonzero;stroke:none;stroke-linecap:square;stroke-linejoin:bevel;stroke-miterlimit:4;stroke-dasharray:none;stroke-dashoffset:0;stroke-opacity:1;color-rendering:auto;image-rendering:auto;shape-rendering:auto;text-rendering:auto;enable-background:accumulate;stop-color:#000000;stop-opacity:1"
       d="M 65.772636,-9.8901977 C 28.107969,-4.897339 0.37638281,37.370351 -4.2649651,67.719929 -8.053134,97.632928 0.72456242,129.84107 13.849037,147.49429 c 13.124475,17.65322 32.009857,30.87987 55.473131,31.51783 25.736188,0.69975 46.035822,-9.03534 59.222752,-25.62345 13.18693,-16.58811 22.21666,-44.91175 20.50391,-69.212889 C 144.69398,22.38761 119.67417,-10.216606 65.772636,-9.8901977 Z M 111.39272,136.46709 C 91.431369,162.92803 56.39437,161.97775 37.265056,140.27486 11.417764,110.95019 5.9695203,49.115584 39.958001,15.749184 c 6.201883,-6.0883734 12.5993,-8.5406342 15.66167,-8.023116 2.377405,0.4017642 2.148434,0.2951692 -2.410557,5.18771 C 36.434086,33.655181 28.553156,68.534631 33.639825,89.394091 39.700555,114.24799 53.90755,132.71419 69.874493,137.12156 54.294843,120.5149 55.175493,108.85176 55.118853,93.549147 55.061134,77.95484 59.277741,66.573219 65.437019,54.435887 75.80058,34.013691 83.482273,30.79809 89.961005,30.247628 c 13.887645,-1.179955 9.980859,9.675201 28.674475,11.731554 12.79073,20.25546 10.2812,70.178108 -7.24276,94.487908 z"
       id="shape10"
       sodipodi:nodetypes="ccssssccssscscssscc" />
  </g>
  <path
     style="color:#000000;font-style:normal;font-variant:normal;font-weight:normal;font-stretch:normal;font-size:medium;line-height:normal;font-family:sans-serif;font-variant-ligatures:normal;font-variant-position:normal;font-variant-caps:normal;font-variant-numeric:normal;font-variant-alternates:normal;font-variant-east-asian:normal;font-feature-settings:normal;font-variation-settings:normal;text-indent:0;text-align:start;text-decoration:none;text-decoration-line:none;text-decoration-style:solid;text-decoration-color:#000000;letter-spacing:normal;word-spacing:normal;text-transform:none;writing-mode:lr-tb;direction:ltr;text-orientation:mixed;dominant-baseline:auto;baseline-shift:baseline;text-anchor:start;white-space:normal;shape-padding:0;shape-margin:0;inline-size:0;clip-rule:nonzero;display:inline;overflow:visible;visibility:visible;opacity:1;isolation:auto;mix-blend-mode:normal;color-interpolation:sRGB;color-interpolation-filters:linearRGB;solid-color:#000000;solid-opacity:1;vector-effect:none;fill:#000000;fill-opacity:1;fill-rule:nonzero;stroke:none;stroke-linecap:square;stroke-linejoin:bevel;stroke-miterlimit:4;stroke-dasharray:none;stroke-dashoffset:0;stroke-opacity:1;color-rendering:auto;image-rendering:auto;shape-rendering:auto;text-rendering:auto;enable-background:accumulate;stop-color:#000000;stop-opacity:1"
     d="m 960.45489,115.24948 c -0.75457,0.003 -8.57669,-0.0768 -11.69396,0.48137 -6.68176,1.19643 -7.89702,2.39717 -9.93108,5.09667 -1.09316,1.45078 -2.33123,14.46946 -1.04162,10.80006 1.21006,-3.44307 4.626,-4.60071 7.37928,-5.68295 4.07905,-1.60335 8.43041,-2.99102 8.49768,0.99517 0.019,1.12793 2.05426,112.55556 3.3453,167.71825 0.0568,2.42631 -7.87479,6.87708 -6.62573,8.92642 0.62916,1.03228 34.88083,0.29863 36.09523,-0.47354 2.02527,-1.28773 -7.47405,-7.72592 -7.5018,-9.34301 L 976.4338,145.5071 c -0.50026,-29.14988 86.7615,-13.80093 81.0859,19.16994 -2.3725,13.78242 -11.2376,76.69131 -3.8294,104.38852 7.5608,28.26783 14.4401,32.45753 34.9603,34.01945 2.5695,0.19557 6.59,0.69822 8.0607,-2.32211 0.6173,-1.26766 3.8111,-9.39627 1.6681,-7.08617 -2.2824,2.46031 -10.6085,3.5481 -12.2212,0.22696 -17.1442,-26.4458 -15.23,-70.51621 -8.7721,-119.08919 10.1141,-76.072633 -71.0153,-56.37578 -116.93121,-59.56502 z"
     id="shape11"
     sodipodi:nodetypes="cssssssssssssssscsc" />
  <path
     id="shape0-6"
     style="fill:#000000;fill-opacity:1;stroke-width:2.1585;stroke-linecap:butt;stroke-miterlimit:4;stroke-dasharray:none"
     d="M 142.58683,0 C 135.63203,1.6529025 131.23912,3.9808575 127.25431,4.5073275 28.723712,1.24503 -65.763977,167.91619 61.415447,246.14063 c 1.375545,-4.29805 2.676803,-6.12914 4.040033,-6.83936 -15.87708,1.05994 -24.40872,-41.78859 -9.325193,-57.5083 6.632933,6.92308 37.175648,3.55273 60.458493,11.34082 24.55845,8.21464 56.43405,14.98348 66.52442,25.09717 22.41007,22.46598 -3.69545,70.8557 -30.91992,72.40137 -25.42022,1.44635 -83.5059,-1.53306 -110.015625,-27.02344 -5.985105,-5.75302 -15.89475,-19.63196 -26.834475,-32.23681 0.946387,2.71569 8.8407,31.87339 11.62353,38.55468 1.773405,0.17269 2.840392,-0.15094 4.505865,-1.09864 24.34926,32.11122 142.831185,70.02896 172.315425,-5.28075 25.89061,-66.12709 -75.61676,-90.04923 -90.65625,-99.34864 -37.395368,-23.12288 -14.73588,-65.230853 22.33008,-72.69726 19.96379,-4.021725 35.08813,18.16976 47.11143,35.11153 0.72383,1.01978 6.4721,0.87345 9.75986,0.62735 -0.73326,-2.41329 -9.99114,-11.80167 -15.76583,-21.22201 11.22859,13.67705 11.69614,11.98029 20.24324,20.94734 3.96582,-1.35051 26.19557,-14.70932 32.06948,-17.32594 -15.82542,2.99255 -31.47021,-17.06382 -31.47021,-17.06382 0,0 -3.63546,-18.652837 -9.36282,-26.366977 C 182.48195,58.713458 168.9716,47.191425 168.9716,47.191425 l -16.16456,-30.48486 8.90333,54.292965 -4.24919,-0.97548 C 150.09617,63.709943 146.48753,58.86174 136.18217,55.109273 l 6.5133,12.35469 -10.51654,-1.584608 C 124.21567,62.52762 123.83423,61.01166 111.41882,58.3782 l 4.66962,7.308158 -11.89801,1.533247 C 98.195462,64.622048 93.055937,62.482665 84.275515,62.313623 l 8.0169,6.439237 -13.011735,3.23544 c -5.219625,-29.312212 38.77195,-52.693132 48.24902,-56.71143 4.11498,1.937535 5.58896,3.271185 6.92285,5.056643 2.9184,-12.059738 3.39413,-12.657623 8.13428,-20.333498 z m 45.50968,93.882638 c -0.79703,-0.03255 -3.2781,-1.538183 -4.22578,-2.795018 -0.0829,-0.67365 -0.34677,-7.041615 -0.27667,-8.462243 0.26883,-0.902002 3.22477,-3.790072 3.28985,-2.46987 0.0627,1.272435 1.47595,12.597721 1.21263,13.727131 z"
     sodipodi:nodetypes="cccccccccccccccccccccsccccccccccccccccccccscc" />
  <rect
     style="fill:#000000;stroke-width:1.26393;stroke-linecap:square;stroke-miterlimit:4;stroke-dasharray:none"
     id="rect36"
     width="15.212809"
     height="15.212809"
     x="627.8764"
     y="-154.54993"
     transform="rotate(45)" />
  <path
     style="color:#000000;font-style:normal;font-variant:normal;font-weight:normal;font-stretch:normal;font-size:medium;line-height:normal;font-family:sans-serif;font-variant-ligatures:normal;font-variant-position:normal;font-variant-caps:normal;font-variant-numeric:normal;font-variant-alternates:normal;font-variant-east-asian:normal;font-feature-settings:normal;font-variation-settings:normal;text-indent:0;text-align:start;text-decoration:none;text-decoration-line:none;text-decoration-style:solid;text-decoration-color:#000000;letter-spacing:normal;word-spacing:normal;text-transform:none;writing-mode:lr-tb;direction:ltr;text-orientation:mixed;dominant-baseline:auto;baseline-shift:baseline;text-anchor:start;white-space:normal;shape-padding:0;shape-margin:0;inline-size:0;clip-rule:nonzero;display:inline;overflow:visible;visibility:visible;opacity:1;isolation:auto;mix-blend-mode:normal;color-interpolation:sRGB;color-interpolation-filters:linearRGB;solid-color:#000000;solid-opacity:1;vector-effect:none;fill:#000000;fill-opacity:1;fill-rule:nonzero;stroke:none;stroke-width:1.26393;stroke-linecap:square;stroke-linejoin:miter;stroke-miterlimit:4;stroke-dasharray:none;stroke-dashoffset:0;stroke-opacity:1;color-rendering:auto;image-rendering:auto;shape-rendering:auto;text-rendering:auto;enable-background:accumulate;stop-color:#000000;stop-opacity:1"
     d="m 578.50063,334.84201 364.50974,6.72904 5.3785,3.87837 -5.3785,3.87888 -364.50974,6.72821 -10.75708,-10.60707 z"
     id="rect861"
     sodipodi:nodetypes="ccccccc" />
  <path
     style="color:#000000;font-style:normal;font-variant:normal;font-weight:normal;font-stretch:normal;font-size:medium;line-height:normal;font-family:sans-serif;font-variant-ligatures:normal;font-variant-position:normal;font-variant-caps:normal;font-variant-numeric:normal;font-variant-alternates:normal;font-variant-east-asian:normal;font-feature-settings:normal;font-variation-settings:normal;text-indent:0;text-align:start;text-decoration:none;text-decoration-line:none;text-decoration-style:solid;text-decoration-color:#000000;letter-spacing:normal;word-spacing:normal;text-transform:none;writing-mode:lr-tb;direction:ltr;text-orientation:mixed;dominant-baseline:auto;baseline-shift:baseline;text-anchor:start;white-space:normal;shape-padding:0;shape-margin:0;inline-size:0;clip-rule:nonzero;display:inline;overflow:visible;visibility:visible;opacity:1;isolation:auto;mix-blend-mode:normal;color-interpolation:sRGB;color-interpolation-filters:linearRGB;solid-color:#000000;solid-opacity:1;vector-effect:none;fill:#000000;fill-opacity:1;fill-rule:nonzero;stroke:none;stroke-width:1.26393;stroke-linecap:square;stroke-linejoin:miter;stroke-miterlimit:4;stroke-dasharray:none;stroke-dashoffset:0;stroke-opacity:1;color-rendering:auto;image-rendering:auto;shape-rendering:auto;text-rendering:auto;enable-background:accumulate;stop-color:#000000;stop-opacity:1"
     d="m 526.79828,334.84201 -364.50972,6.72904 -5.3785,3.87837 5.3785,3.87888 364.50972,6.72821 10.7571,-10.60707 z"
     id="path871"
     sodipodi:nodetypes="ccccccc" />
</svg>
